<svg width="426" height="426" viewBox="0 0 678 426" fill="none" xmlns="http://www.w3.org/2000/svg"><path fill="#00000000" d="M0 0h426v426H0z"/><g clip-path="url(#prefix__clip0_0_1)"><path fill-rule="evenodd" clip-rule="evenodd" d="M170.378 264.977c-9.23-8.984-13.041-19.913-11.358-32.759 1.699-12.208 7.531-23.21 17.537-33.029 7.725-7.457 15.083-12.529 22.019-15.191 8.23-2.77 12.779-4.547 13.699-5.288 8.633-6.434 19.03-9.523 31.22-9.289 5.209.107 8.492-.162 9.919-.784 2.81-1.599 6.817-3.388 12.014-5.372 9.945-3.787 24.505-5.509 43.685-5.186 2.413-.113 8.132-.601 17.164-1.55 9.009-.923 15.229-1.297 18.663-1.167 4.044.061 8.784.57 14.196 1.474 3.12.491 7.622 1.244 13.567 2.276 1.146.029 5.241-.128 12.37-.547 5.314-.373 10.239.428 14.762 2.392 3.498 1.435 9.845 2.804 19.025 4.151 9.175 1.354 16.22 3.127 21.087 5.391 6.393 2.92 12.597 6.932 18.648 12.009 5.338 4.479 9.206 8.657 11.601 12.486 3.541 6.621 4.967 14.788 4.196 24.442-.9 14.083-7.657 23.729-20.255 28.928-12.624 5.178-26.862 6.727-42.777 4.618-11.282-1.303-21.34-4.011-30.264-8.123-7.87-3.58-21.308-4.418-40.317-2.471-17.327.652-29.27 1.375-35.84 2.218-10.307 1.391-19.443 3.845-27.45 7.428-7.221 3.673-11.754 6.089-13.592 7.253-7.81 4.373-17.331 8.38-28.569 11.958-10.631 3.211-18.641 4.836-23.978 4.882-6.641.205-13.624-.63-20.858-2.481-9.25-1.986-15.947-4.899-20.114-8.669z" fill="url(#prefix__paint0_linear_0_1)"/><path fill-rule="evenodd" clip-rule="evenodd" d="M202.72 244.326c.315 2.084 2.546 3.07 6.767 2.973.182.152 4.124-.178 11.859-.976 4.662-.307 13.877-4.251 27.584-11.852 3.463-1.665 9.228-4.116 17.239-7.388 8.056-2.917 14-4.91 17.816-5.972 16.28-3.929 26.911-6.061 31.904-6.407 12.57-1.312 28.206-1.199 46.998.31 11.569.908 23.835 2.274 36.761 4.025l-14.655-.927c-7.671-.672-18.073-.918-31.18-.717-6.99-.089-20.587.486-40.767 1.723-4.376-.034-7.685.213-9.926.778-2.369.718-5.968 2.587-10.793 5.509-4.184 2.526-9.222 4.518-15.16 5.937a4502.41 4502.41 0 01-15.5 3.777c-4.766 1.47-8.04 2.543-9.744 3.193-.308.367-3.591 2.32-9.817 5.885-7.176 3.973-18.389 7.89-33.7 11.745-2.526.905-4.752 2.676-6.67 5.331-1.576 2.588-2.306 4.853-2.171 6.797.141 1.937 2.667 3.294 7.598 4.101 4.931.806 10.732.523 17.455-.806 13.596-2.849 26.462-6.619 38.601-11.271l-7.778 3.468c-13.167 6.234-24.876 10.531-35.067 12.861-5.603 1.074-10.132 1.538-13.544 1.381-3.893-.242-10.391-1.431-19.485-3.604-21.265-4.824-31.334-18.254-30.182-40.334.571-10.141 4.432-19.465 11.61-28.019 3.583-4.27 7.151-7.496 10.724-9.649-.091 2.937 1.228 4.851 4.074 5.682 1.823.643 4.325-.589 7.5-3.701 1.997-1.657 4.95-4.466 8.863-8.459 1.816-1.808 5.115-3.622 9.835-5.392 4.736-1.79 8.007-3.583 9.844-5.417 2.096-2.142 5.251-3.588 9.404-4.367 5.186-.22 9.312-.362 12.39-.53 3.049-.148 8.619-1.694 16.697-4.637 9.154-3.201 15.995-5.237 20.472-6.006 10.593-1.731 24.588-2.426 41.961-2.107l36.3.93c8.143-.193 18.493 2.01 31.16 6.556-10.769-2.953-20.347-4.327-28.768-4.105l-35.111-.82c-16.227-.29-29.396.655-39.452 2.826-3.847.729-12.105 2.861-24.82 6.45-10.516 3.035-17.276 4.606-20.348 4.78-3.539.362-7.691 1.403-12.433 3.2-2.832.955-7.497 2.817-13.946 5.569-5.028 2.138-10.349 6.019-15.932 11.646-5.584 5.616-8.39 9.788-8.352 12.572-.167 2.304.662 3.579 2.461 3.895 2.771-.119 5.101-.12 7.064.015 2.594.039 6.353-.889 11.246-2.866 4.869-1.645 8.502-3.304 10.799-5.015 2.02-1.329 8.267-3.682 18.712-7.039 9.864-2.968 16.72-4.81 20.539-5.506l57.098-11.214c4.022-.57 11.32-.848 21.848-.804 13.306.284 23.798.424 31.424.478 15.267.053 32.102 4.197 50.545 12.384-17.266-5.38-29.716-8.277-37.369-8.616-31.397-1.524-50.02-1.642-55.753-.414a4979.592 4979.592 0 00-16.518 3.911c-6.67 1.635-12.122 2.528-16.343 2.625-15.825.98-26.573 2.581-32.26 4.779-6.012 2.232-13.762 4.837-23.265 7.744a110.665 110.665 0 00-18.207 7.463c-7.476 4.028-12.234 7.949-14.241 11.723-3.164 5.52-4.487 12.187-3.895 19.915z" fill="url(#prefix__paint1_linear_0_1)"/><path fill-rule="evenodd" clip-rule="evenodd" d="M174.855 212.781c9.19-.782 14.996 5.295 17.39 18.23 2.34 11.959 1.399 20.277-2.802 24.915-4.048 4.824-9.009 6.881-14.882 6.171-7.038-.755-11.595-6.534-13.685-17.396-1.902-10.692-.883-18.944 3.074-24.686 2.9-4.536 6.559-6.935 10.905-7.234z" fill="url(#prefix__paint2_radial_0_1)"/><path fill-rule="evenodd" clip-rule="evenodd" d="M171.619 218.23c4.784-1.137 8.854 1.209 12.175 7.066 3.373 6.162 3.776 12.72 1.164 19.635-2.253 6.592-6.046 9.311-11.301 8.232-4.605-.839-7.624-3.202-9.029-7.132-2.376-6.258-2.684-12.417-.864-18.44 1.714-5.543 4.334-8.666 7.855-9.361z" fill="url(#prefix__paint3_radial_0_1)"/><mask id="prefix__b" style="mask-type:luminance" maskUnits="userSpaceOnUse" x="136" y="45" width="358" height="357"><mask id="prefix__a" style="mask-type:luminance" maskUnits="userSpaceOnUse" x="136" y="45" width="358" height="357"><path d="M493.178 208.151L298.837 45.08 136.474 238.577l194.341 163.071 162.363-193.497z" fill="#fff"/></mask><g mask="url(#prefix__a)"><path d="M493.178 208.151L298.837 45.08 136.474 238.577l194.341 163.071 162.363-193.497z" fill="#000" fill-opacity=".18"/></g></mask><g mask="url(#prefix__b)"><mask id="prefix__c" style="mask-type:luminance" maskUnits="userSpaceOnUse" x="136" y="45" width="358" height="357"><path d="M493.178 208.151L298.837 45.08 136.474 238.577l194.341 163.071 162.363-193.497z" fill="#fff"/></mask><g mask="url(#prefix__c)"><mask id="prefix__d" style="mask-type:luminance" maskUnits="userSpaceOnUse" x="136" y="45" width="358" height="357"><path d="M493.178 208.151L298.837 45.08 136.474 238.577l194.341 163.071 162.363-193.497z" fill="#fff"/></mask><g mask="url(#prefix__d)"><mask id="prefix__g" style="mask-type:luminance" maskUnits="userSpaceOnUse" x="166" y="192" width="309" height="85"><mask id="prefix__e" style="mask-type:luminance" maskUnits="userSpaceOnUse" x="162" y="66" width="332" height="336"><path d="M493.178 208.151L324.749 66.823 162.386 260.32l168.429 141.328 162.363-193.497z" fill="#fff"/></mask><g mask="url(#prefix__e)"><mask id="prefix__f" style="mask-type:luminance" maskUnits="userSpaceOnUse" x="162" y="66" width="332" height="336"><path d="M493.178 208.151L324.749 66.823 162.386 260.32l168.429 141.328 162.363-193.497z" fill="#fff"/></mask><g mask="url(#prefix__f)"><path fill-rule="evenodd" clip-rule="evenodd" d="M277.489 252.035c-7.222 3.673-11.755 6.089-13.593 7.253-7.81 4.373-17.331 8.379-28.569 11.958-10.631 3.211-18.64 4.836-23.978 4.882-6.64.204-13.624-.63-20.857-2.481-9.246-1.993-15.948-4.899-20.115-8.669l-4.006-4.737c11.361 8.918 23.19 10.805 35.462 5.639 5.972-2.538 14.282-4.536 24.874-5.95 9.522-.81 18.784-3.783 27.82-8.947 11.968-6.922 28.093-12.05 48.28-15.453 20.498-3.721 38.641-4.267 54.392-1.66 10.472 1.545 25.704 4.468 45.646 8.763 16.914 2.958 30.606 3.703 41.022 2.13 9.65-1.318 16.91-5.391 21.73-12.228 4.287-6.135 5.963-13.211 5.038-21.264l-2.054-18.563 1.614 2.287c3.546 6.614 4.967 14.788 4.196 24.442-.899 14.083-7.683 23.707-20.281 28.906-12.598 5.2-26.836 6.749-42.745 4.633-11.262-1.274-21.345-4.005-30.27-8.116-7.87-3.58-21.308-4.418-40.317-2.471-17.326.652-29.27 1.375-35.84 2.218-10.302 1.384-19.442 3.845-27.449 7.428z" fill="#000"/></g></g></mask><g mask="url(#prefix__g)"><mask id="prefix__h" style="mask-type:luminance" maskUnits="userSpaceOnUse" x="162" y="66" width="332" height="336"><path d="M493.178 208.151L324.749 66.823 162.386 260.32l168.429 141.328 162.363-193.497z" fill="#fff"/></mask><g mask="url(#prefix__h)"><mask id="prefix__i" style="mask-type:luminance" maskUnits="userSpaceOnUse" x="162" y="66" width="332" height="336"><path d="M493.178 208.151L324.749 66.823 162.386 260.32l168.429 141.328 162.363-193.497z" fill="#fff"/></mask><g mask="url(#prefix__i)"><path fill-rule="evenodd" clip-rule="evenodd" d="M277.489 252.035c-7.222 3.673-11.755 6.089-13.593 7.253-7.81 4.373-17.331 8.379-28.569 11.958-10.631 3.211-18.64 4.836-23.978 4.882-6.64.204-13.624-.63-20.857-2.481-9.246-1.993-15.948-4.899-20.115-8.669l-4.006-4.737c11.361 8.918 23.19 10.805 35.462 5.639 5.972-2.538 14.282-4.536 24.874-5.95 9.522-.81 18.784-3.783 27.82-8.947 11.968-6.922 28.093-12.05 48.28-15.453 20.498-3.721 38.641-4.267 54.392-1.66 10.472 1.545 25.704 4.468 45.646 8.763 16.914 2.958 30.606 3.703 41.022 2.13 9.65-1.318 16.91-5.391 21.73-12.228 4.287-6.135 5.963-13.211 5.038-21.264l-2.054-18.563 1.614 2.287c3.546 6.614 4.967 14.788 4.196 24.442-.899 14.083-7.683 23.707-20.281 28.906-12.598 5.2-26.836 6.749-42.745 4.633-11.262-1.274-21.345-4.005-30.27-8.116-7.87-3.58-21.308-4.418-40.317-2.471-17.326.652-29.27 1.375-35.84 2.218-10.302 1.384-19.442 3.845-27.449 7.428z" fill="#000"/></g></g></g></g></g></g><mask id="prefix__k" style="mask-type:luminance" maskUnits="userSpaceOnUse" x="183" y="74" width="280" height="278"><mask id="prefix__j" style="mask-type:luminance" maskUnits="userSpaceOnUse" x="183" y="74" width="280" height="278"><path d="M462.547 205.189L307.074 74.732l-123.172 146.79 155.473 130.457 123.172-146.79z" fill="#fff"/></mask><g mask="url(#prefix__j)"><path d="M462.547 205.189L307.074 74.732l-123.172 146.79 155.473 130.457 123.172-146.79z" fill="#000" fill-opacity=".48"/></g></mask><g mask="url(#prefix__k)"><mask id="prefix__l" style="mask-type:luminance" maskUnits="userSpaceOnUse" x="183" y="74" width="280" height="278"><path d="M462.547 205.189L307.074 74.732l-123.172 146.79 155.473 130.457 123.172-146.79z" fill="#fff"/></mask><g mask="url(#prefix__l)"><mask id="prefix__m" style="mask-type:luminance" maskUnits="userSpaceOnUse" x="183" y="74" width="280" height="278"><path d="M462.547 205.189L307.074 74.732l-123.172 146.79 155.473 130.457 123.172-146.79z" fill="#fff"/></mask><g mask="url(#prefix__m)"><path fill-rule="evenodd" clip-rule="evenodd" d="M195.97 221.836c-4.313-1.175 1.729-9.612 18.105-25.274 6.649-6.542 24.074-12.706 52.188-18.518 5.433-1.172 13.849-2.467 25.274-3.808 12.88-1.312 21.014-2.218 24.371-2.733 8.837-1.374 27.848-1.943 57.048-1.694 6.997.095 17.798 2.325 32.381 6.693 12.946 4.2 21.723 7.619 26.287 10.244 11.037 4.371 18.364 8.439 22.076 12.133 5.611 5.903 3.144 13.566-7.361 22.955-10.64 9.548-18.888 12.485-24.645 8.86-4.786-3.084-20.17-5.247-46.211-6.484-24.105-1.137-40.807-1.018-50.145.243-5.279.687-17.612 1.571-37.026 2.553-19.544 1.19-31.335 2.086-35.334 2.642-6.417 1.017-17.168.16-32.286-2.531-7.748-1.658-16.001-3.387-24.722-5.281z" fill="url(#prefix__paint4_linear_0_1)"/></g></g></g><path fill-rule="evenodd" clip-rule="evenodd" d="M304.776 155.327c7.21-1.238 10.527.044 9.996 3.862-.506 4.101-3.544 5.815-9.111 5.056-4.756-.66-7.209-2.104-7.374-4.369-.162-2.227 1.984-3.758 6.489-4.549z" fill="#CDDB32"/><path fill-rule="evenodd" clip-rule="evenodd" d="M266.781 171.678c3.721 6.761 1.432 10.002-6.856 9.71-8.77-.389-12.571-2.384-11.386-5.915 1.245-3.22 4.081-5.376 8.562-6.494 4.744-1.443 7.965-.559 9.68 2.699zM222.064 195.987c.646 6.624-2.41 9.029-9.191 7.296-6.956-1.88-9.741-4.217-8.298-6.963 1.085-2.728 4.211-4.505 9.351-5.343 5.121-.853 7.836.845 8.138 5.01zM246.124 208.887c8.865 1.708 10.229 8.003 4.035 18.884-.855 1.374-2.132.792-3.771-1.834-1.112-1.502-2.946-4.553-5.538-9.173-3.724-6.456-1.967-9.063 5.274-7.877z" fill="#E5E835"/><path fill-rule="evenodd" clip-rule="evenodd" d="M372.403 175.256c-1.973 1.983-3.722 1.095-5.326-2.65-1.405-3.93-1.067-6.228.998-6.939 2.52-.899 4.656-.312 6.421 1.794 1.642 2.265.924 4.858-2.093 7.795zM423.644 217.32l-5.435-4.561c-1.593-1.654-1.87-3.218-.848-4.804 1.435-2.435 3.395-3.678 5.786-3.764 2.59-.26 4.085 1.301 4.493 4.669.439 3.7.131 6.317-.892 7.904-.855 1.374-1.912 1.556-3.104.556z" fill="#B1D12F"/><path fill-rule="evenodd" clip-rule="evenodd" d="M306.805 193.403c5.368.286 7.227 2.596 5.594 7.002-1.76 4.572-3.889 6.595-6.356 6.036-1.987-.461-2.798-2.836-2.468-7.084.202-4.095 1.252-6.057 3.23-5.954z" fill="#CDDB32"/><path fill-rule="evenodd" clip-rule="evenodd" d="M400.788 164.031c2.079 1.745 2.287 3.602.647 5.557-1.822 1.803-3.351 2.032-4.561.699-1.257-1.317-1.394-3.115-.41-5.313 1.156-2.101 2.607-2.384 4.324-.943zM431.63 173.071c4.442 1.021 6.404 3.418 5.846 7.214-.126 2.611-1.382 5.503-3.744 8.672-1.308 1.927-2.178 2.083-2.627.513-.395-.911-1.326-3.512-2.748-7.775-2.134-4.497-3.198-7.083-3.248-7.694.038-1.48 2.231-1.778 6.521-.93zM463.026 193.514c2.103 2.072 1.982 4.676-.373 7.851-2.258 2.994-4.627 3.713-7.164 2.21-2.202-1.586-1.906-4.044.939-7.434 2.973-3.543 5.167-4.408 6.598-2.627zM382.227 196.689c6.274 1.626 7.549 4.515 3.791 8.638-3.718 4.431-6.552 5.703-8.468 3.776-1.445-1.474-1.386-4.005.155-7.59 1.674-3.746 3.2-5.354 4.522-4.824zM393.206 233.61c-1.292 2.566-2.539 4.408-3.761 5.509-1.689 1.289-3.16 1.305-4.37-.029-1.423-1.501-.102-3.588 3.914-6.256 4.188-2.886 5.558-2.624 4.217.776z" fill="#B1D12F"/><path fill-rule="evenodd" clip-rule="evenodd" d="M342.15 214.442c4.712-2.129 6.105-.961 4.152 3.484-2.093 4.6-4.789 6.419-8.114 5.448-3.15-.812-3.931-2.354-2.283-4.621 1.506-1.795 3.568-3.226 6.245-4.311z" fill="#CDDB32"/><path fill-rule="evenodd" clip-rule="evenodd" d="M238.348 259.213c5.4-1.199 6.024.53 1.823 5.168-4.048 4.825-7.726 6.445-11.079 4.837-3.374-1.637-3.743-3.459-1.139-5.537 2.283-1.997 5.733-3.49 10.395-4.468z" fill="#E5E835"/><path fill-rule="evenodd" clip-rule="evenodd" d="M450.472 231.656c4.352-.305 4.825 1.604 1.393 5.694-3.438 4.097-6.883 6.084-10.294 5.939-3.609-.276-4.457-2.239-2.608-5.838 2.182-3.626 6.014-5.562 11.509-5.795z" fill="#B1D12F"/><path fill-rule="evenodd" clip-rule="evenodd" d="M218.946 203.399c-.641.042-.263-1.278 1.18-4.024 1.72-3.128 2.214-5.112 1.51-6.022l-1.637-2.26c4.32 1.18 6.723 3.197 7.262 6.094.296 2.068-.384 3.589-2.093 4.599-1.712.963-3.782 1.534-6.222 1.613zM267.413 180.383l1.751-2.612c.854-1.728.664-3.093-.554-4.115-2.933-2.768-5.291-4.746-6.983-5.86l4.335-.444c2.794.525 5.279 1.985 7.374 4.368 1.445 1.475 1.151 3.365-.792 5.68-2.104 2.192-3.816 3.154-5.131 2.983z" fill="#B0A009"/><path fill-rule="evenodd" clip-rule="evenodd" d="M308.567 163.965a6.856 6.856 0 002.403-.246c1.909-.524 2.949-1.607 3.158-3.251l.474-3.695c4.138 1.027 5.638 2.74 4.534 5.134-.547 1.679-2.095 2.642-4.685 2.914-2.245.254-4.215-.069-5.884-.856z" fill="#A19208"/><path fill-rule="evenodd" clip-rule="evenodd" d="M370.792 176.611l2.323-1.69c1.513-1.448 2.198-2.829 2.128-4.127l-.495-3.121c2.494.58 3.716 1.742 3.682 3.532-.035 1.791-.956 3.599-2.771 5.407-1.966 1.989-3.609 1.986-4.867-.001z" fill="#A19C08"/><path fill-rule="evenodd" clip-rule="evenodd" d="M250.159 227.771l1.958-3.372c1.109-2.401 1.71-4.341 1.768-5.804.011-2.118-.787-4.299-2.429-6.564 3.939.554 6.665 2.397 8.198 5.503 1.105 1.814.037 4.113-3.161 6.899-2.893 2.723-4.995 3.847-6.334 3.338zM232.996 269.288l2.091-.952c1.408-.956 2.775-2.071 4.154-3.359 1.943-2.316 2.961-4.042 3.018-5.188 2.022 2.891 2.185 5.472.569 7.754-2.077 2.476-5.363 3.05-9.832 1.745z" fill="#B0A009"/><path fill-rule="evenodd" clip-rule="evenodd" d="M346.474 213.499c2.36 5.62 1.779 9.089-1.687 10.444l-6.923 1.922.206-.759c.592-.39 1.868-.832 3.782-1.363 3.178-.972 4.712-4.392 4.622-10.244z" fill="#94A108"/><path fill-rule="evenodd" clip-rule="evenodd" d="M425.326 203.711c1.161.406 2.525 2.438 4.075 6.182 1.784 3.886 2.19 6.546 1.341 7.914-.721 1.214-2.105 1.429-4.106.682-.972-.236-1.974-.633-2.992-1.169l1.85-1.166c1.221-1.101 1.932-2.46 2.115-4.126.151-2.943-.651-5.697-2.283-8.317zM396.874 170.287l2.444.231c1.758-.344 2.677-1.085 2.76-2.21l.537-2.744c2.632 2.822 2.924 4.579.833 5.269-1.094.277-2.549.261-4.348-.055l-2.226-.491z" fill="#A19C08"/><path fill-rule="evenodd" clip-rule="evenodd" d="M313.613 196.853c.423 5.812-.695 9.104-3.419 9.877-1.733.683-2.929.873-3.612.608-.33-.278-.525-.612-.517-.923l4.161-2.854c1.662-1.311 2.807-3.556 3.387-6.708z" fill="#94A108"/><path fill-rule="evenodd" clip-rule="evenodd" d="M393.206 233.61c.479 4.666-.113 7.331-1.872 7.98-.966.441-1.841.457-2.679.061-.49-.139-.924-.332-1.254-.609l1.182-.384c.945-.401 2.489-2.755 4.623-7.048zM454.417 232.704c.545 7.427-1.758 11.396-6.896 11.928-3.038.476-5.505.088-7.385-1.171-.706-.593-1.226-1.21-1.58-1.815l2.421.247c1.932-.198 4.016-.576 6.256-1.141 3.671-.876 6.071-3.525 7.184-8.048zM377.55 209.103l4.083-.656c2.832-.954 4.682-2.29 5.533-3.975l2.11-4.62c-.26 5.546-1.038 9.157-2.376 10.752-1.204 1.434-2.77 2.065-4.733 1.93-1.956-.129-3.516-1.256-4.617-3.431zM432.719 191.756l1.36-1.621a29.588 29.588 0 001.775-5.299l1.341-8.426c2.202.916 3.211 3.002 3.138 6.272-.271 2.797-1.299 5.403-3.06 7.87-1.773 2.469-3.286 2.837-4.554 1.204zM455.489 203.575l3.446.629c2.108-.051 3.413-1.094 3.936-3.099.907-3.185.96-5.722.155-7.591 3.163 3.269 4.043 6.588 2.676 9.966-.98 2.248-2.956 2.852-5.949 1.854a14.74 14.74 0 01-4.264-1.759z" fill="#A19C08"/></g><g clip-path="url(#prefix__clip1_0_1)"><path fill-rule="evenodd" clip-rule="evenodd" d="M251.145 389.272c-11.346 10.496-24.683 14.377-39.971 11.553-14.522-2.802-27.34-10.482-38.479-23.089-8.451-9.726-14.067-18.862-16.821-27.341-2.803-10.037-4.647-15.599-5.476-16.748-7.168-10.75-10.218-23.403-9.172-37.996.455-6.235.339-10.187-.316-11.937-1.74-3.467-3.632-8.381-5.683-14.734-3.914-12.155-5.064-29.711-3.472-52.675.017-2.899-.209-9.783-.779-20.666-.54-10.854-.598-18.332-.227-22.439.328-4.842 1.236-10.49 2.658-16.919.785-3.708 1.97-9.055 3.58-16.115.107-1.371.176-6.288.122-14.858-.114-6.392 1.155-12.243 3.793-17.539 1.939-4.103 3.978-11.623 6.169-22.54 2.199-10.909 4.766-19.24 7.785-24.93 3.9-7.478 9.098-14.66 15.562-21.592 5.703-6.116 10.952-10.489 15.691-13.119 8.157-3.827 18.033-5.023 29.554-3.493 16.82 1.963 27.955 10.666 33.394 26.09 5.412 15.453 6.375 32.612 2.848 51.552-2.27 13.437-6.148 25.32-11.636 35.757-4.783 9.206-6.631 25.257-5.493 48.159-.307 20.804-.191 35.162.408 43.088 1.019 12.439 3.386 23.54 7.177 33.361 3.948 8.885 6.558 14.468 7.838 16.744 4.75 9.633 8.953 21.295 12.535 34.986 3.181 12.942 4.625 22.642 4.346 29.042-.173 7.97-1.611 16.286-4.284 24.838-2.961 10.961-6.872 18.803-11.651 23.56z" fill="url(#prefix__paint5_linear_0_1)"/><path fill-rule="evenodd" clip-rule="evenodd" d="M228.429 349.218c2.517-.247 3.838-2.859 3.987-7.923.194-.208.045-4.953-.425-14.272-.075-5.606-4.223-16.897-12.47-33.801-1.779-4.253-4.353-11.316-7.771-21.122-2.99-9.836-5.005-17.085-6.037-21.725-3.687-19.755-5.574-32.629-5.676-38.634-.782-15.146.335-33.877 3.325-56.301 1.813-13.807 4.222-28.42 7.131-43.8l-2.031 17.503c-1.287 9.151-2.236 21.601-2.817 37.32-.546 8.371-.711 24.701-.497 48.961-.315 5.243-.226 9.224.31 11.944.712 2.884 2.726 7.315 5.924 13.28 2.764 5.173 4.835 11.336 6.163 18.541.768 4.018 1.964 10.337 3.552 18.811 1.462 5.804 2.543 9.794 3.215 11.878.42.392 2.554 4.449 6.435 12.134 4.311 8.848 8.301 22.531 11.959 41.122.926 3.084 2.908 5.862 5.968 8.327 3.004 2.052 5.671 3.068 8.009 3.029 2.331-.047 4.116-2.989 5.392-8.848 1.276-5.858 1.302-12.828.131-20.968-2.561-16.472-6.27-32.127-11.082-46.966l3.667 9.539c6.643 16.171 11.057 30.472 13.21 42.83.935 6.783 1.206 12.239.804 16.318-.534 4.65-2.367 12.362-5.543 23.124-7.116 25.179-23.842 36.403-50.23 33.636-12.116-1.322-23.047-6.535-32.847-15.673-4.892-4.562-8.534-9.04-10.889-13.457 3.513.294 5.89-1.167 7.064-4.526.885-2.144-.434-5.22-3.964-9.22-1.86-2.496-5.04-6.212-9.58-11.152-2.053-2.289-4.019-6.357-5.844-12.124-1.848-5.789-3.79-9.82-5.874-12.138-2.435-2.645-3.969-6.518-4.641-11.543.062-6.228.151-11.182.142-14.881.014-3.663-1.489-10.434-4.509-20.299-3.26-11.171-5.27-19.498-5.911-24.91-1.409-12.803-1.363-29.619.11-50.418l3.395-43.441c.28-9.771 3.57-22.035 9.813-36.929-4.215 12.719-6.463 24.11-6.726 34.216l-3.188 42.025c-1.367 19.427-1.06 35.267.909 47.454.632 4.655 2.669 14.686 6.172 30.148 2.976 12.793 4.433 20.993 4.449 24.685.212 4.263 1.199 9.304 3.054 15.1.967 3.454 2.905 9.161 5.798 17.062 2.246 6.159 6.562 12.779 12.956 19.824 6.379 7.044 11.203 10.668 14.54 10.798 2.751.345 4.331-.568 4.823-2.705.031-3.328.177-6.12.461-8.464.21-3.106-.665-7.669-2.727-13.657-1.666-5.938-3.426-10.396-5.332-13.256-1.466-2.504-3.894-10.138-7.26-22.865-2.937-12.008-4.715-20.339-5.309-24.959l-9.852-69.128c-.431-4.856-.305-13.619.409-26.232 1.176-15.928 2.002-28.492 2.547-37.628 1.022-18.291 7.044-38.206 18.014-59.793-7.532 20.353-11.785 35.09-12.672 44.24-3.798 37.529-5.109 59.839-3.998 66.786a5903.92 5903.92 0 003.65 20.04c1.54 8.096 2.268 14.686 2.119 19.751.181 19.024 1.424 32.005 3.701 38.958 2.297 7.345 4.932 16.795 7.818 28.367a132.914 132.914 0 007.8 22.287c4.358 9.211 8.758 15.16 13.154 17.802 6.417 4.138 14.324 6.142 23.622 5.918z" fill="url(#prefix__paint6_linear_0_1)"/><path fill-rule="evenodd" clip-rule="evenodd" d="M188.876 380.629c-.36-11.062 7.288-17.639 22.939-19.694 14.477-2.054 24.386-.404 29.68 4.922 5.527 5.154 7.681 11.228 6.461 18.221-1.347 8.387-8.558 13.485-21.706 15.308-12.932 1.607-22.758-.132-29.39-5.234-5.253-3.761-7.899-8.296-7.984-13.523z" fill="url(#prefix__paint7_radial_0_1)"/><path fill-rule="evenodd" clip-rule="evenodd" d="M195.202 384.849c-1.061-5.804 2.006-10.534 9.233-14.146 7.596-3.655 15.48-3.727 23.603-.162 7.758 3.114 10.777 7.83 9.155 14.06-1.295 5.466-4.316 8.935-9.114 10.371-7.649 2.455-15.049 2.437-22.152-.122-6.535-2.402-10.112-5.738-10.725-10.001z" fill="url(#prefix__paint8_radial_0_1)"/><mask id="prefix__o" style="mask-type:luminance" maskUnits="userSpaceOnUse" x="-5" y="-2" width="431" height="431"><mask id="prefix__n" style="mask-type:luminance" maskUnits="userSpaceOnUse" x="-5" y="-2" width="431" height="431"><path d="M203.32-1.126L-4.303 221.522l221.681 206.721 207.623-222.648L203.32-1.126z" fill="#fff"/></mask><g mask="url(#prefix__n)"><path d="M203.32-1.126L-4.303 221.522l221.681 206.721 207.623-222.648L203.32-1.126z" fill="#000" fill-opacity=".18"/></g></mask><g mask="url(#prefix__o)"><mask id="prefix__p" style="mask-type:luminance" maskUnits="userSpaceOnUse" x="-5" y="-2" width="431" height="431"><path d="M203.32-1.126L-4.303 221.522l221.681 206.721 207.623-222.648L203.32-1.126z" fill="#fff"/></mask><g mask="url(#prefix__p)"><mask id="prefix__q" style="mask-type:luminance" maskUnits="userSpaceOnUse" x="-5" y="-2" width="431" height="431"><path d="M203.32-1.126L-4.303 221.522l221.681 206.721 207.623-222.648L203.32-1.126z" fill="#fff"/></mask><g mask="url(#prefix__q)"><mask id="prefix__t" style="mask-type:luminance" maskUnits="userSpaceOnUse" x="183" y="21" width="85" height="373"><mask id="prefix__r" style="mask-type:luminance" maskUnits="userSpaceOnUse" x="23" y="-2" width="403" height="401"><path d="M203.32-1.126L23.38 191.835l221.681 206.721 179.94-192.961L203.32-1.126z" fill="#fff"/></mask><g mask="url(#prefix__r)"><mask id="prefix__s" style="mask-type:luminance" maskUnits="userSpaceOnUse" x="23" y="-2" width="403" height="401"><path d="M203.32-1.126L23.38 191.835l221.681 206.721 179.94-192.961L203.32-1.126z" fill="#fff"/></mask><g mask="url(#prefix__s)"><path fill-rule="evenodd" clip-rule="evenodd" d="M242.362 260.103c3.948 8.884 6.558 14.468 7.838 16.744 4.75 9.633 8.953 21.295 12.535 34.986 3.181 12.942 4.625 22.642 4.346 29.042-.173 7.97-1.611 16.286-4.284 24.838-2.969 10.954-6.872 18.803-11.651 23.56l-5.929 4.503c11.401-13.054 14.405-27.111 8.985-42.141-2.667-7.316-4.539-17.401-5.568-30.182-.373-11.462-3.354-22.748-8.975-33.9-7.544-14.777-12.675-34.423-15.485-58.827-3.172-24.798-2.688-46.575 1.426-65.285 2.509-12.452 6.968-30.522 13.367-54.151 4.608-20.082 6.36-36.444 5.13-49.025-.973-11.647-5.399-20.602-13.288-26.808-7.084-5.523-15.458-7.976-25.167-7.373l-22.373 1.296 2.841-1.79c8.149-3.835 18.033-5.024 29.554-3.494 16.82 1.962 27.927 10.696 33.366 26.12 5.44 15.423 6.403 32.582 2.868 51.514-2.234 13.416-6.14 25.328-11.628 35.765-4.783 9.206-6.631 25.257-5.493 48.158-.307 20.805-.191 35.163.408 43.088 1.011 12.433 3.386 23.541 7.177 33.362z" fill="#000"/></g></g></mask><g mask="url(#prefix__t)"><mask id="prefix__u" style="mask-type:luminance" maskUnits="userSpaceOnUse" x="23" y="-2" width="403" height="401"><path d="M203.32-1.126L23.38 191.835l221.681 206.721 179.94-192.961L203.32-1.126z" fill="#fff"/></mask><g mask="url(#prefix__u)"><mask id="prefix__v" style="mask-type:luminance" maskUnits="userSpaceOnUse" x="23" y="-2" width="403" height="401"><path d="M203.32-1.126L23.38 191.835l221.681 206.721 179.94-192.961L203.32-1.126z" fill="#fff"/></mask><g mask="url(#prefix__v)"><path fill-rule="evenodd" clip-rule="evenodd" d="M242.362 260.103c3.948 8.884 6.558 14.468 7.838 16.744 4.75 9.633 8.953 21.295 12.535 34.986 3.181 12.942 4.625 22.642 4.346 29.042-.173 7.97-1.611 16.286-4.284 24.838-2.969 10.954-6.872 18.803-11.651 23.56l-5.929 4.503c11.401-13.054 14.405-27.111 8.985-42.141-2.667-7.316-4.539-17.401-5.568-30.182-.373-11.462-3.354-22.748-8.975-33.9-7.544-14.777-12.675-34.423-15.485-58.827-3.172-24.798-2.688-46.575 1.426-65.285 2.509-12.452 6.968-30.522 13.367-54.151 4.608-20.082 6.36-36.444 5.13-49.025-.973-11.647-5.399-20.602-13.288-26.808-7.084-5.523-15.458-7.976-25.167-7.373l-22.373 1.296 2.841-1.79c8.149-3.835 18.033-5.024 29.554-3.494 16.82 1.962 27.927 10.696 33.366 26.12 5.44 15.423 6.403 32.582 2.868 51.514-2.234 13.416-6.14 25.328-11.628 35.765-4.783 9.206-6.631 25.257-5.493 48.158-.307 20.805-.191 35.163.408 43.088 1.011 12.433 3.386 23.541 7.177 33.362z" fill="#000"/></g></g></g></g></g></g><mask id="prefix__x" style="mask-type:luminance" maskUnits="userSpaceOnUse" x="31" y="35" width="336" height="336"><mask id="prefix__w" style="mask-type:luminance" maskUnits="userSpaceOnUse" x="31" y="35" width="336" height="336"><path d="M197.846 35.395L31.747 213.513 199.92 370.336l166.098-178.118L197.846 35.395z" fill="#fff"/></mask><g mask="url(#prefix__w)"><path d="M197.846 35.395L31.747 213.513 199.92 370.336l166.098-178.118L197.846 35.395z" fill="#000" fill-opacity=".48"/></g></mask><g mask="url(#prefix__x)"><mask id="prefix__y" style="mask-type:luminance" maskUnits="userSpaceOnUse" x="31" y="35" width="336" height="336"><path d="M197.846 35.395L31.747 213.513 199.92 370.336l166.098-178.118L197.846 35.395z" fill="#fff"/></mask><g mask="url(#prefix__y)"><mask id="prefix__z" style="mask-type:luminance" maskUnits="userSpaceOnUse" x="31" y="35" width="336" height="336"><path d="M197.846 35.395L31.747 213.513 199.92 370.336l166.098-178.118L197.846 35.395z" fill="#fff"/></mask><g mask="url(#prefix__z)"><path fill-rule="evenodd" clip-rule="evenodd" d="M201.053 355.895c-1.678 5.095-11.41-2.676-29.15-23.284-7.422-8.378-13.714-29.647-18.913-63.703-1.064-6.584-2.087-16.751-2.976-30.526-.764-15.517-1.339-25.322-1.745-29.378-1.092-10.675-.579-33.493 1.553-68.469.553-8.379 3.904-21.183 10.054-38.384 5.846-15.25 10.495-25.553 13.927-30.858 5.931-12.95 11.266-21.477 15.926-25.692 7.426-6.354 16.454-2.917 27.045 10.262 10.775 13.35 13.776 23.42 9.07 30.09-3.996 5.542-7.555 23.841-10.672 54.97-2.876 28.815-3.783 48.838-2.858 60.107.492 6.369.777 21.204.734 44.53.199 23.496.532 37.682.947 42.51.816 7.753-.886 20.582-5.06 38.53-2.474 9.182-5.064 18.963-7.882 29.295z" fill="url(#prefix__paint9_linear_0_1)"/></g></g></g><path fill-rule="evenodd" clip-rule="evenodd" d="M128.185 221.329c-1.031-8.718.714-12.613 5.256-11.736 4.883.863 6.746 4.613 5.486 11.236-1.089 5.658-2.974 8.507-5.697 8.562-2.68.054-4.38-2.614-5.045-8.062z" fill="#CDDB32"/><path fill-rule="evenodd" clip-rule="evenodd" d="M145.393 267.887c8.336-4.034 12.076-1.088 11.206 8.826-1.017 10.486-3.647 14.915-7.804 13.273-3.78-1.694-6.186-5.228-7.244-10.668-1.432-5.775-.17-9.58 3.842-11.431zM171.716 323.001c7.979-.357 10.669 3.455 8.166 11.472-2.689 8.218-5.665 11.409-8.865 9.507-3.201-1.472-5.135-5.329-5.816-11.541-.701-6.191 1.504-9.337 6.515-9.438zM188.685 294.979c2.605-10.517 10.234-11.755 22.884-3.65 1.593 1.111.814 2.605-2.435 4.404-1.87 1.239-5.641 3.245-11.34 6.061-7.97 4.057-10.985 1.787-9.109-6.815z" fill="#E5E835"/><path fill-rule="evenodd" clip-rule="evenodd" d="M156.315 141.539c2.252 2.489 1.078 4.53-3.511 6.217-4.798 1.436-7.53.887-8.253-1.633-.918-3.076-.081-5.598 2.554-7.581 2.817-1.826 5.879-.803 9.21 2.997zM209.94 82.777l-5.807 6.226c-2.082 1.805-3.973 2.04-5.811.715-2.826-1.873-4.194-4.3-4.147-7.17-.148-3.121 1.817-4.814 5.878-5.092 4.461-.294 7.579.24 9.416 1.565 1.593 1.111 1.744 2.39.471 3.756z" fill="#B1D12F"/><path fill-rule="evenodd" clip-rule="evenodd" d="M173.941 221.289c.68-6.415 3.565-8.498 8.742-6.264 5.368 2.397 7.659 5.074 6.835 7.996-.678 2.352-3.575 3.175-8.645 2.512-4.894-.499-7.179-1.88-6.932-4.244z" fill="#CDDB32"/><path fill-rule="evenodd" clip-rule="evenodd" d="M144.645 106.819c2.222-2.382 4.461-2.515 6.7-.426 2.046 2.296 2.226 4.143.551 5.509-1.657 1.424-3.819 1.475-6.392.158-2.445-1.517-2.693-3.274-.859-5.241zM157.416 70.428c1.502-5.26 4.498-7.46 9.012-6.554 3.121.316 6.507 2.003 10.157 5.032 2.227 1.688 2.359 2.741.45 3.18-1.117.416-4.292 1.368-9.491 2.806-5.522 2.274-8.688 3.386-9.424 3.408-1.771-.139-1.99-2.785-.704-7.872zM183.886 34.088c2.614-2.39 5.728-2.082 9.385.94 3.446 2.894 4.158 5.778 2.197 8.723-2.038 2.54-4.965 2.03-8.848-1.591-4.059-3.785-4.958-6.469-2.734-8.072zM182.615 131.113c2.343-7.417 5.885-8.763 10.59-4 5.076 4.733 6.423 8.209 3.994 10.384-1.858 1.64-4.887 1.409-9.087-.662-4.383-2.242-6.214-4.171-5.497-5.722zM227.55 120.275c2.994 1.709 5.122 3.32 6.365 4.853 1.438 2.105 1.366 3.868-.309 5.235-1.888 1.611-4.306-.103-7.25-5.083-3.197-5.201-2.796-6.825 1.194-5.005z" fill="#B1D12F"/><path fill-rule="evenodd" clip-rule="evenodd" d="M201.373 180.254c-2.255-5.78-.767-7.376 4.436-4.757 5.381 2.797 7.392 6.143 6.019 10.067-1.17 3.723-3.068 4.562-5.681 2.444-2.056-1.917-3.641-4.478-4.774-7.754z" fill="#CDDB32"/><path fill-rule="evenodd" clip-rule="evenodd" d="M248.506 307.458c-1.098-6.546 1.013-7.186 6.308-1.86 5.527 5.154 7.238 9.663 5.1 13.581-2.173 3.939-4.38 4.268-6.707 1.016-2.249-2.861-3.822-7.089-4.701-12.737z" fill="#E5E835"/><path fill-rule="evenodd" clip-rule="evenodd" d="M228.805 51.527c-.093-5.234 2.225-5.68 6.911-1.311 4.693 4.377 6.858 8.63 6.471 12.708-.559 4.308-2.964 5.2-7.16 2.759-4.209-2.843-6.288-7.557-6.222-14.156z" fill="#B1D12F"/><path fill-rule="evenodd" clip-rule="evenodd" d="M180.403 327.203c.009.771-1.549.235-4.749-1.667-3.64-2.257-5.987-2.975-7.121-2.187l-2.811 1.819c1.685-5.103 4.253-7.856 7.758-8.32 2.497-.225 4.277.686 5.38 2.797 1.046 2.113 1.601 4.629 1.543 7.558zM155.865 267.676l-3.021-2.262c-2.017-1.132-3.665-.989-4.966.406-3.501 3.34-6.02 6.042-7.46 8.001l-.26-5.224c.805-3.315 2.71-6.201 5.698-8.562 1.857-1.639 4.104-1.168 6.756 1.306 2.495 2.659 3.54 4.771 3.253 6.335z" fill="#B0A009"/><path fill-rule="evenodd" clip-rule="evenodd" d="M138.775 217.329a8.246 8.246 0 00-.144-2.896c-.509-2.32-1.741-3.635-3.697-3.989l-4.399-.799c1.491-4.895 3.638-6.584 6.438-5.111 1.977.761 3.034 2.677 3.197 5.798.163 2.705-.347 5.046-1.395 6.997z" fill="#A19208"/><path fill-rule="evenodd" clip-rule="evenodd" d="M157.837 143.555l-1.879-2.89c-1.64-1.904-3.253-2.811-4.812-2.809l-3.771.397c.852-2.952 2.321-4.344 4.464-4.19 2.144.153 4.253 1.371 6.305 3.66 2.26 2.481 2.153 4.45-.307 5.832z" fill="#A19C08"/><path fill-rule="evenodd" clip-rule="evenodd" d="M211.569 291.329l-3.918-2.557c-2.807-1.48-5.095-2.323-6.845-2.484-2.537-.146-5.2.673-8.018 2.499.911-4.686 3.291-7.837 7.11-9.479 2.243-1.21 4.931.214 8.068 4.221 3.082 3.638 4.297 6.228 3.603 7.8zM260.243 314.504l-1.01-2.565c-1.056-1.748-2.307-3.456-3.764-5.189-2.653-2.474-4.658-3.802-6.028-3.942 3.592-2.243 6.696-2.276 9.329-.195 2.836 2.644 3.317 6.618 1.473 11.891z" fill="#B0A009"/><path fill-rule="evenodd" clip-rule="evenodd" d="M200.515 175.014c6.882-2.476 11.003-1.562 12.409 2.677l1.869 8.417-.897-.295c-.43-.734-.879-2.29-1.395-4.618-.966-3.869-4.968-5.922-11.986-6.181z" fill="#94A108"/><path fill-rule="evenodd" clip-rule="evenodd" d="M193.738 79.906c.559-1.366 3.079-2.873 7.664-4.495 4.768-1.894 7.981-2.214 9.567-1.11 1.41.94 1.581 2.612.56 4.963-.343 1.15-.883 2.326-1.589 3.513l-1.28-2.29c-1.243-1.534-2.828-2.47-4.812-2.794-3.517-.367-6.868.422-10.11 2.213zM151.896 111.902l.431-2.914c-.302-2.128-1.132-3.276-2.475-3.446l-3.255-.816c3.548-2.977 5.672-3.216 6.367-.667.263 1.328.153 3.07-.339 5.207l-.729 2.636z" fill="#A19C08"/><path fill-rule="evenodd" clip-rule="evenodd" d="M178.503 213.347c6.991-.141 10.866 1.405 11.621 4.718.711 2.119.863 3.565.502 4.366-.353.379-.765.591-1.139.562l-3.158-5.165c-1.466-2.075-4.085-3.588-7.826-4.481z" fill="#94A108"/><path fill-rule="evenodd" clip-rule="evenodd" d="M227.55 120.275c5.621-.281 8.777.595 9.446 2.745.467 1.184.431 2.234-.096 3.213-.197.579-.456 1.087-.809 1.465l-.385-1.441c-.422-1.157-3.146-3.155-8.156-5.982zM230.308 46.866c8.935-.188 13.546 2.822 13.861 9.013.379 3.67-.24 6.602-1.867 8.776-.754.809-1.527 1.392-2.273 1.779l.447-2.886c-.116-2.328-.438-4.848-.975-7.568-.819-4.455-3.842-7.496-9.193-9.114zM197.199 137.497l-.53-4.934c-.966-3.454-2.451-5.755-4.417-6.88l-5.403-2.819c6.63.66 10.908 1.82 12.735 3.523 1.644 1.533 2.3 3.449 2.016 5.793-.278 2.336-1.726 4.134-4.401 5.317zM179.876 70.296l-1.858-1.732a35.512 35.512 0 00-6.238-2.46l-10.013-2.136c1.235-2.58 3.798-3.66 7.713-3.367 3.334.501 6.392 1.896 9.239 4.162 2.847 2.28 3.193 4.115 1.157 5.533zM195.468 43.751l.971-4.09c.071-2.529-1.096-4.158-3.467-4.911-3.759-1.286-6.796-1.51-9.086-.662 4.115-3.586 8.148-4.432 12.111-2.582 2.631 1.316 3.232 3.722 1.847 7.245a17.664 17.664 0 01-2.376 5z" fill="#A19C08"/></g><g clip-path="url(#prefix__clip2_0_1)"><path fill-rule="evenodd" clip-rule="evenodd" d="M503.148 389.275c-11.346 10.496-24.683 14.377-39.971 11.553-14.522-2.802-27.341-10.482-38.479-23.089-8.451-9.726-14.067-18.862-16.821-27.341-2.803-10.037-4.647-15.6-5.476-16.748-7.169-10.75-10.218-23.403-9.172-37.996.455-6.236.339-10.188-.317-11.937-1.739-3.467-3.631-8.381-5.682-14.734-3.914-12.155-5.064-29.711-3.472-52.675.016-2.899-.209-9.783-.779-20.666-.54-10.854-.598-18.332-.227-22.439.328-4.842 1.235-10.49 2.658-16.919.785-3.708 1.97-9.055 3.58-16.115.107-1.371.176-6.288.121-14.858-.113-6.392 1.156-12.243 3.794-17.54 1.939-4.102 3.978-11.622 6.169-22.539 2.198-10.909 4.766-19.24 7.785-24.93 3.9-7.478 9.098-14.66 15.562-21.593 5.702-6.115 10.952-10.488 15.691-13.118 8.157-3.827 18.033-5.024 29.554-3.493 16.82 1.962 27.954 10.666 33.394 26.09 5.412 15.453 6.374 32.612 2.847 51.552-2.269 13.437-6.147 25.32-11.635 35.757-4.783 9.206-6.632 25.257-5.493 48.158-.307 20.805-.191 35.163.407 43.088 1.02 12.44 3.387 23.541 7.178 33.361 3.948 8.885 6.558 14.469 7.838 16.745 4.75 9.633 8.953 21.295 12.535 34.986 3.181 12.942 4.625 22.642 4.345 29.041-.172 7.971-1.61 16.287-4.283 24.839-2.961 10.961-6.872 18.803-11.651 23.56z" fill="url(#prefix__paint10_linear_0_1)"/><path fill-rule="evenodd" clip-rule="evenodd" d="M480.432 349.221c2.517-.247 3.838-2.859 3.987-7.923.194-.208.045-4.953-.426-14.272-.074-5.606-4.222-16.897-12.469-33.801-1.779-4.253-4.353-11.316-7.771-21.122-2.99-9.836-5.005-17.085-6.038-21.725-3.686-19.755-5.573-32.629-5.675-38.635-.782-15.146.335-33.876 3.324-56.3 1.814-13.807 4.222-28.42 7.132-43.801l-2.031 17.504c-1.288 9.151-2.236 21.601-2.818 37.32-.546 8.371-.71 24.701-.496 48.961-.315 5.242-.226 9.224.31 11.944.712 2.884 2.725 7.315 5.923 13.28 2.765 5.173 4.836 11.336 6.164 18.54a5686.9 5686.9 0 013.552 18.812c1.462 5.803 2.543 9.794 3.215 11.878.42.392 2.554 4.449 6.435 12.134 4.311 8.848 8.301 22.531 11.959 41.122.926 3.083 2.908 5.862 5.968 8.327 3.004 2.051 5.671 3.068 8.009 3.028 2.331-.047 4.116-2.988 5.392-8.847 1.276-5.859 1.301-12.828.131-20.968-2.561-16.472-6.27-32.127-11.083-46.966l3.668 9.539c6.643 16.171 11.057 30.472 13.21 42.83.935 6.783 1.206 12.239.804 16.318-.535 4.65-2.367 12.362-5.543 23.124-7.116 25.179-23.842 36.403-50.23 33.635-12.116-1.321-23.047-6.534-32.847-15.672-4.892-4.562-8.534-9.04-10.89-13.457 3.514.293 5.891-1.167 7.065-4.526.885-2.144-.434-5.22-3.965-9.22-1.859-2.496-5.039-6.212-9.579-11.153-2.053-2.288-4.019-6.356-5.844-12.123-1.848-5.789-3.79-9.821-5.874-12.138-2.435-2.645-3.969-6.518-4.642-11.544.063-6.227.152-11.181.143-14.88.014-3.663-1.489-10.435-4.509-20.299-3.26-11.171-5.27-19.498-5.911-24.911-1.409-12.802-1.363-29.618.11-50.417l3.395-43.441c.28-9.771 3.57-22.035 9.813-36.929-4.215 12.719-6.463 24.11-6.726 34.216l-3.188 42.025c-1.367 19.427-1.06 35.267.909 47.454.632 4.655 2.669 14.686 6.172 30.148 2.976 12.793 4.433 20.993 4.449 24.685.212 4.263 1.199 9.304 3.054 15.1.967 3.454 2.905 9.161 5.798 17.062 2.246 6.159 6.562 12.779 12.956 19.823 6.379 7.045 11.202 10.669 14.54 10.798 2.751.346 4.331-.567 4.823-2.704.031-3.328.177-6.12.461-8.464.21-3.106-.666-7.669-2.727-13.657-1.666-5.938-3.426-10.396-5.332-13.256-1.466-2.504-3.894-10.138-7.261-22.865-2.937-12.008-4.714-20.339-5.308-24.959l-9.852-69.129c-.431-4.855-.306-13.618.409-26.231 1.176-15.928 2.002-28.492 2.546-37.628 1.023-18.291 7.045-38.206 18.015-59.793-7.532 20.353-11.785 35.09-12.672 44.24-3.798 37.529-5.109 59.839-3.998 66.786a5659.43 5659.43 0 003.65 20.04c1.539 8.096 2.268 14.686 2.119 19.75.18 19.025 1.424 32.006 3.701 38.959 2.297 7.345 4.932 16.795 7.818 28.367a132.914 132.914 0 007.8 22.287c4.358 9.211 8.758 15.16 13.154 17.802 6.417 4.138 14.324 6.142 23.622 5.918z" fill="url(#prefix__paint11_linear_0_1)"/><path fill-rule="evenodd" clip-rule="evenodd" d="M440.879 380.632c-.36-11.062 7.288-17.639 22.939-19.694 14.477-2.054 24.386-.404 29.68 4.922 5.527 5.154 7.681 11.227 6.461 18.221-1.347 8.387-8.558 13.484-21.706 15.308-12.932 1.607-22.758-.132-29.39-5.234-5.253-3.762-7.899-8.296-7.984-13.523z" fill="url(#prefix__paint12_radial_0_1)"/><path fill-rule="evenodd" clip-rule="evenodd" d="M447.205 384.852c-1.061-5.804 2.006-10.534 9.233-14.146 7.596-3.656 15.48-3.727 23.603-.162 7.758 3.113 10.777 7.83 9.155 14.06-1.295 5.466-4.316 8.935-9.114 10.371-7.649 2.455-15.049 2.437-22.152-.122-6.535-2.403-10.112-5.739-10.725-10.001z" fill="url(#prefix__paint13_radial_0_1)"/><mask id="prefix__B" style="mask-type:luminance" maskUnits="userSpaceOnUse" x="247" y="-2" width="431" height="431"><mask id="prefix__A" style="mask-type:luminance" maskUnits="userSpaceOnUse" x="247" y="-2" width="431" height="431"><path d="M455.323-1.123L247.7 221.525l221.681 206.721 207.623-222.648L455.323-1.123z" fill="#fff"/></mask><g mask="url(#prefix__A)"><path d="M455.323-1.123L247.7 221.525l221.681 206.721 207.623-222.648L455.323-1.123z" fill="#000" fill-opacity=".18"/></g></mask><g mask="url(#prefix__B)"><mask id="prefix__C" style="mask-type:luminance" maskUnits="userSpaceOnUse" x="247" y="-2" width="431" height="431"><path d="M455.323-1.123L247.7 221.525l221.681 206.721 207.623-222.648L455.323-1.123z" fill="#fff"/></mask><g mask="url(#prefix__C)"><mask id="prefix__D" style="mask-type:luminance" maskUnits="userSpaceOnUse" x="247" y="-2" width="431" height="431"><path d="M455.323-1.123L247.7 221.525l221.681 206.721 207.623-222.648L455.323-1.123z" fill="#fff"/></mask><g mask="url(#prefix__D)"><mask id="prefix__G" style="mask-type:luminance" maskUnits="userSpaceOnUse" x="435" y="21" width="85" height="373"><mask id="prefix__E" style="mask-type:luminance" maskUnits="userSpaceOnUse" x="275" y="-2" width="403" height="401"><path d="M455.323-1.123l-179.94 192.961 221.681 206.721 179.94-192.961L455.323-1.123z" fill="#fff"/></mask><g mask="url(#prefix__E)"><mask id="prefix__F" style="mask-type:luminance" maskUnits="userSpaceOnUse" x="275" y="-2" width="403" height="401"><path d="M455.323-1.123l-179.94 192.961 221.681 206.721 179.94-192.961L455.323-1.123z" fill="#fff"/></mask><g mask="url(#prefix__F)"><path fill-rule="evenodd" clip-rule="evenodd" d="M494.365 260.105c3.948 8.885 6.558 14.469 7.838 16.745 4.75 9.633 8.953 21.295 12.535 34.986 3.18 12.942 4.625 22.642 4.345 29.041-.172 7.971-1.61 16.287-4.283 24.839-2.969 10.954-6.872 18.803-11.651 23.56l-5.929 4.503c11.401-13.054 14.405-27.111 8.985-42.141-2.667-7.316-4.539-17.401-5.568-30.182-.373-11.462-3.354-22.748-8.975-33.9-7.544-14.777-12.676-34.423-15.485-58.828-3.172-24.797-2.688-46.574 1.426-65.284 2.508-12.453 6.968-30.522 13.367-54.151 4.608-20.083 6.36-36.445 5.129-49.025-.972-11.647-5.398-20.602-13.288-26.808-7.083-5.523-15.457-7.976-25.166-7.373l-22.373 1.296 2.841-1.79c8.149-3.835 18.033-5.025 29.554-3.494 16.82 1.962 27.927 10.696 33.366 26.12 5.44 15.423 6.402 32.582 2.868 51.514-2.235 13.415-6.14 25.328-11.628 35.764-4.783 9.207-6.632 25.258-5.493 48.159-.307 20.805-.191 35.163.407 43.088 1.012 12.433 3.387 23.541 7.178 33.361z" fill="#000"/></g></g></mask><g mask="url(#prefix__G)"><mask id="prefix__H" style="mask-type:luminance" maskUnits="userSpaceOnUse" x="275" y="-2" width="403" height="401"><path d="M455.323-1.123l-179.94 192.961 221.681 206.721 179.94-192.961L455.323-1.123z" fill="#fff"/></mask><g mask="url(#prefix__H)"><mask id="prefix__I" style="mask-type:luminance" maskUnits="userSpaceOnUse" x="275" y="-2" width="403" height="401"><path d="M455.323-1.123l-179.94 192.961 221.681 206.721 179.94-192.961L455.323-1.123z" fill="#fff"/></mask><g mask="url(#prefix__I)"><path fill-rule="evenodd" clip-rule="evenodd" d="M494.365 260.105c3.948 8.885 6.558 14.469 7.838 16.745 4.75 9.633 8.953 21.295 12.535 34.986 3.18 12.942 4.625 22.642 4.345 29.041-.172 7.971-1.61 16.287-4.283 24.839-2.969 10.954-6.872 18.803-11.651 23.56l-5.929 4.503c11.401-13.054 14.405-27.111 8.985-42.141-2.667-7.316-4.539-17.401-5.568-30.182-.373-11.462-3.354-22.748-8.975-33.9-7.544-14.777-12.676-34.423-15.485-58.828-3.172-24.797-2.688-46.574 1.426-65.284 2.508-12.453 6.968-30.522 13.367-54.151 4.608-20.083 6.36-36.445 5.129-49.025-.972-11.647-5.398-20.602-13.288-26.808-7.083-5.523-15.457-7.976-25.166-7.373l-22.373 1.296 2.841-1.79c8.149-3.835 18.033-5.025 29.554-3.494 16.82 1.962 27.927 10.696 33.366 26.12 5.44 15.423 6.402 32.582 2.868 51.514-2.235 13.415-6.14 25.328-11.628 35.764-4.783 9.207-6.632 25.258-5.493 48.159-.307 20.805-.191 35.163.407 43.088 1.012 12.433 3.387 23.541 7.178 33.361z" fill="#000"/></g></g></g></g></g></g><mask id="prefix__K" style="mask-type:luminance" maskUnits="userSpaceOnUse" x="283" y="35" width="336" height="336"><mask id="prefix__J" style="mask-type:luminance" maskUnits="userSpaceOnUse" x="283" y="35" width="336" height="336"><path d="M449.848 35.398L283.75 213.516l168.172 156.823L618.02 192.221 449.848 35.398z" fill="#fff"/></mask><g mask="url(#prefix__J)"><path d="M449.848 35.398L283.75 213.516l168.172 156.823L618.02 192.221 449.848 35.398z" fill="#000" fill-opacity=".48"/></g></mask><g mask="url(#prefix__K)"><mask id="prefix__L" style="mask-type:luminance" maskUnits="userSpaceOnUse" x="283" y="35" width="336" height="336"><path d="M449.848 35.398L283.75 213.516l168.172 156.823L618.02 192.221 449.848 35.398z" fill="#fff"/></mask><g mask="url(#prefix__L)"><mask id="prefix__M" style="mask-type:luminance" maskUnits="userSpaceOnUse" x="283" y="35" width="336" height="336"><path d="M449.848 35.398L283.75 213.516l168.172 156.823L618.02 192.221 449.848 35.398z" fill="#fff"/></mask><g mask="url(#prefix__M)"><path fill-rule="evenodd" clip-rule="evenodd" d="M453.056 355.898c-1.678 5.095-11.41-2.676-29.15-23.285-7.422-8.378-13.714-29.646-18.914-63.702-1.063-6.584-2.086-16.751-2.975-30.526-.764-15.518-1.339-25.322-1.745-29.378-1.092-10.675-.579-33.494 1.553-68.469.553-8.379 3.903-21.183 10.054-38.384 5.846-15.25 10.495-25.553 13.927-30.858 5.931-12.951 11.266-21.477 15.926-25.692 7.426-6.354 16.454-2.917 27.045 10.262 10.775 13.35 13.776 23.419 9.07 30.09-3.996 5.542-7.555 23.841-10.672 54.97-2.876 28.815-3.783 48.838-2.858 60.107.491 6.369.777 21.204.734 44.53.199 23.496.532 37.682.947 42.509.816 7.754-.886 20.583-5.06 38.531-2.474 9.181-5.064 18.963-7.882 29.295z" fill="url(#prefix__paint14_linear_0_1)"/></g></g></g><path fill-rule="evenodd" clip-rule="evenodd" d="M380.188 221.332c-1.031-8.718.714-12.613 5.256-11.736 4.883.863 6.746 4.612 5.486 11.235-1.089 5.659-2.974 8.508-5.698 8.563-2.679.054-4.379-2.614-5.044-8.062z" fill="#CDDB32"/><path fill-rule="evenodd" clip-rule="evenodd" d="M397.396 267.89c8.336-4.035 12.076-1.088 11.206 8.826-1.017 10.485-3.647 14.915-7.804 13.273-3.78-1.694-6.186-5.228-7.244-10.669-1.432-5.775-.17-9.58 3.842-11.43zM423.719 323.004c7.979-.358 10.669 3.455 8.166 11.472-2.69 8.218-5.666 11.409-8.866 9.507-3.2-1.472-5.134-5.329-5.815-11.541-.701-6.191 1.504-9.337 6.515-9.438zM440.688 294.982c2.605-10.517 10.234-11.756 22.884-3.65 1.593 1.111.814 2.605-2.435 4.404-1.87 1.239-5.641 3.245-11.34 6.061-7.97 4.056-10.985 1.787-9.109-6.815z" fill="#E5E835"/><path fill-rule="evenodd" clip-rule="evenodd" d="M408.318 141.542c2.252 2.489 1.078 4.53-3.511 6.217-4.798 1.436-7.53.887-8.253-1.633-.918-3.076-.082-5.598 2.554-7.581 2.817-1.826 5.879-.803 9.21 2.997zM461.943 82.78l-5.807 6.226c-2.082 1.804-3.973 2.04-5.811.714-2.826-1.873-4.194-4.3-4.147-7.17-.148-3.12 1.817-4.813 5.878-5.091 4.461-.294 7.578.24 9.416 1.565 1.593 1.111 1.744 2.39.471 3.755z" fill="#B1D12F"/><path fill-rule="evenodd" clip-rule="evenodd" d="M425.944 221.292c.68-6.415 3.565-8.498 8.742-6.264 5.368 2.397 7.659 5.074 6.835 7.996-.678 2.351-3.575 3.174-8.645 2.512-4.894-.499-7.179-1.88-6.932-4.244z" fill="#CDDB32"/><path fill-rule="evenodd" clip-rule="evenodd" d="M396.648 106.822c2.222-2.382 4.46-2.515 6.7-.426 2.046 2.296 2.225 4.142.551 5.509-1.657 1.424-3.819 1.475-6.392.158-2.445-1.517-2.693-3.274-.859-5.241zM409.418 70.43c1.503-5.258 4.499-7.46 9.013-6.553 3.121.316 6.507 2.003 10.157 5.032 2.227 1.688 2.359 2.741.449 3.18-1.116.416-4.291 1.368-9.49 2.805-5.522 2.274-8.689 3.387-9.424 3.409-1.771-.14-1.99-2.785-.705-7.873zM435.888 34.09c2.615-2.39 5.729-2.08 9.385.94 3.447 2.895 4.159 5.779 2.198 8.724-2.039 2.539-4.965 2.03-8.848-1.591-4.06-3.785-4.958-6.47-2.735-8.072zM434.618 131.116c2.343-7.417 5.885-8.763 10.59-4 5.076 4.733 6.422 8.209 3.994 10.384-1.858 1.639-4.887 1.409-9.087-.662-4.383-2.242-6.214-4.171-5.497-5.722zM479.553 120.278c2.994 1.709 5.122 3.319 6.365 4.853 1.438 2.105 1.366 3.868-.309 5.235-1.888 1.611-4.306-.103-7.251-5.083-3.196-5.201-2.796-6.825 1.195-5.005z" fill="#B1D12F"/><path fill-rule="evenodd" clip-rule="evenodd" d="M453.376 180.257c-2.256-5.78-.768-7.376 4.436-4.757 5.381 2.797 7.391 6.143 6.019 10.067-1.171 3.723-3.068 4.562-5.681 2.444-2.056-1.917-3.641-4.478-4.774-7.754z" fill="#CDDB32"/><path fill-rule="evenodd" clip-rule="evenodd" d="M500.509 307.461c-1.098-6.547 1.013-7.186 6.308-1.86 5.526 5.153 7.238 9.663 5.1 13.58-2.173 3.94-4.381 4.269-6.707 1.017-2.249-2.861-3.823-7.089-4.701-12.737z" fill="#E5E835"/><path fill-rule="evenodd" clip-rule="evenodd" d="M480.808 51.53c-.093-5.234 2.225-5.681 6.911-1.312 4.693 4.377 6.858 8.63 6.471 12.709-.559 4.308-2.964 5.2-7.16 2.758-4.209-2.842-6.288-7.556-6.222-14.155z" fill="#B1D12F"/><path fill-rule="evenodd" clip-rule="evenodd" d="M432.405 327.205c.01.772-1.548.235-4.748-1.666-3.64-2.257-5.987-2.975-7.121-2.187l-2.811 1.819c1.685-5.103 4.253-7.856 7.758-8.32 2.496-.225 4.277.686 5.38 2.797 1.046 2.113 1.601 4.629 1.542 7.557zM407.868 267.679l-3.021-2.262c-2.017-1.132-3.665-.989-4.966.406-3.501 3.34-6.02 6.042-7.461 8l-.259-5.223c.804-3.315 2.709-6.201 5.697-8.562 1.858-1.64 4.105-1.168 6.757 1.306 2.494 2.658 3.54 4.771 3.253 6.335z" fill="#B0A009"/><path fill-rule="evenodd" clip-rule="evenodd" d="M390.778 217.332a8.246 8.246 0 00-.144-2.896c-.509-2.32-1.741-3.635-3.697-3.989l-4.399-.8c1.491-4.894 3.638-6.583 6.438-5.11 1.976.761 3.034 2.677 3.196 5.798.164 2.705-.346 5.046-1.394 6.997z" fill="#A19208"/><path fill-rule="evenodd" clip-rule="evenodd" d="M409.839 143.558l-1.878-2.89c-1.64-1.904-3.253-2.811-4.813-2.809l-3.771.397c.852-2.952 2.321-4.344 4.465-4.19 2.143.153 4.252 1.371 6.305 3.66 2.26 2.481 2.153 4.449-.308 5.832z" fill="#A19C08"/><path fill-rule="evenodd" clip-rule="evenodd" d="M463.572 291.332l-3.918-2.558c-2.808-1.48-5.095-2.322-6.845-2.483-2.537-.146-5.201.672-8.018 2.499.911-4.687 3.291-7.837 7.11-9.479 2.243-1.211 4.931.214 8.068 4.221 3.082 3.638 4.297 6.227 3.603 7.8zM512.246 314.507l-1.01-2.565c-1.056-1.748-2.308-3.456-3.764-5.189-2.653-2.474-4.658-3.803-6.028-3.942 3.592-2.243 6.695-2.276 9.328-.196 2.836 2.645 3.318 6.619 1.474 11.892z" fill="#B0A009"/><path fill-rule="evenodd" clip-rule="evenodd" d="M452.518 175.017c6.882-2.476 11.003-1.562 12.409 2.677l1.869 8.417-.897-.295c-.43-.734-.879-2.291-1.396-4.618-.965-3.869-4.967-5.922-11.985-6.181z" fill="#94A108"/><path fill-rule="evenodd" clip-rule="evenodd" d="M445.741 79.909c.559-1.366 3.079-2.873 7.664-4.495 4.768-1.895 7.981-2.214 9.567-1.11 1.41.94 1.58 2.612.56 4.962-.344 1.15-.883 2.327-1.589 3.513l-1.281-2.29c-1.242-1.533-2.827-2.47-4.811-2.794-3.517-.366-6.868.423-10.11 2.214zM403.899 111.905l.431-2.915c-.302-2.127-1.132-3.276-2.475-3.445l-3.255-.816c3.548-2.977 5.672-3.216 6.367-.667.263 1.327.153 3.07-.339 5.206l-.729 2.637z" fill="#A19C08"/><path fill-rule="evenodd" clip-rule="evenodd" d="M430.506 213.349c6.991-.14 10.866 1.406 11.621 4.718.711 2.12.863 3.566.502 4.367-.353.378-.766.591-1.139.562l-3.158-5.165c-1.466-2.075-4.086-3.588-7.826-4.482z" fill="#94A108"/><path fill-rule="evenodd" clip-rule="evenodd" d="M479.553 120.278c5.621-.281 8.777.595 9.445 2.744.468 1.185.432 2.235-.095 3.214-.197.579-.456 1.087-.809 1.465l-.385-1.441c-.422-1.157-3.146-3.156-8.156-5.982zM482.311 46.868c8.935-.187 13.546 2.823 13.861 9.013.379 3.67-.24 6.603-1.867 8.777-.755.809-1.527 1.392-2.274 1.779l.447-2.886c-.115-2.328-.437-4.848-.974-7.568-.819-4.455-3.842-7.496-9.193-9.115zM449.202 137.5l-.53-4.934c-.966-3.454-2.451-5.755-4.417-6.88l-5.403-2.819c6.63.66 10.908 1.819 12.735 3.523 1.644 1.533 2.3 3.449 2.016 5.793-.278 2.335-1.726 4.134-4.401 5.317zM431.879 70.299l-1.858-1.733a35.512 35.512 0 00-6.238-2.46l-10.013-2.135c1.235-2.581 3.798-3.66 7.713-3.367 3.334.501 6.392 1.896 9.239 4.162 2.847 2.28 3.193 4.115 1.157 5.533zM447.471 43.754l.971-4.09c.071-2.529-1.097-4.158-3.467-4.912-3.76-1.286-6.796-1.508-9.087-.661 4.116-3.586 8.149-4.432 12.112-2.582 2.631 1.316 3.232 3.722 1.847 7.245a17.664 17.664 0 01-2.376 5z" fill="#A19C08"/></g><defs><linearGradient id="prefix__paint0_linear_0_1" x1="240.205" y1="191.81" x2="391.87" y2="257.243" gradientUnits="userSpaceOnUse"><stop stop-color="#B8B306"/><stop offset="1" stop-color="#8CA104"/></linearGradient><linearGradient id="prefix__paint1_linear_0_1" x1="157.694" y1="218.895" x2="419.403" y2="228.065" gradientUnits="userSpaceOnUse"><stop stop-color="#DBD50F"/><stop offset="1" stop-color="#B7D106"/></linearGradient><linearGradient id="prefix__paint4_linear_0_1" x1="324.418" y1="228.963" x2="327.328" y2="167.293" gradientUnits="userSpaceOnUse"><stop stop-color="#F4FF7D"/><stop offset="1"/></linearGradient><linearGradient id="prefix__paint5_linear_0_1" x1="167.85" y1="300.999" x2="255.787" y2="123.361" gradientUnits="userSpaceOnUse"><stop stop-color="#B8B306"/><stop offset="1" stop-color="#8CA104"/></linearGradient><linearGradient id="prefix__paint6_linear_0_1" x1="195.125" y1="401.578" x2="222.551" y2="88.534" gradientUnits="userSpaceOnUse"><stop stop-color="#DBD50F"/><stop offset="1" stop-color="#B7D106"/></linearGradient><linearGradient id="prefix__paint9_linear_0_1" x1="217.661" y1="202.416" x2="143.94" y2="195.056" gradientUnits="userSpaceOnUse"><stop stop-color="#F4FF7D"/><stop offset="1"/></linearGradient><linearGradient id="prefix__paint10_linear_0_1" x1="419.853" y1="301.002" x2="507.79" y2="123.363" gradientUnits="userSpaceOnUse"><stop stop-color="#B8B306"/><stop offset="1" stop-color="#8CA104"/></linearGradient><linearGradient id="prefix__paint11_linear_0_1" x1="447.128" y1="401.581" x2="474.553" y2="88.537" gradientUnits="userSpaceOnUse"><stop stop-color="#DBD50F"/><stop offset="1" stop-color="#B7D106"/></linearGradient><linearGradient id="prefix__paint14_linear_0_1" x1="469.664" y1="202.418" x2="395.943" y2="195.059" gradientUnits="userSpaceOnUse"><stop stop-color="#F4FF7D"/><stop offset="1"/></linearGradient><radialGradient id="prefix__paint2_radial_0_1" cx="0" cy="0" r="1" gradientUnits="userSpaceOnUse" gradientTransform="matrix(36.81768 .19522 -.19637 37.03408 172.506 227.166)"><stop stop-color="#EDE824"/><stop offset="1" stop-color="#E3E10F"/></radialGradient><radialGradient id="prefix__paint3_radial_0_1" cx="0" cy="0" r="1" gradientUnits="userSpaceOnUse" gradientTransform="rotate(.246 -53033.26 40050.294) scale(26.2891 26.4421)"><stop stop-color="#FFFB42"/><stop offset="1" stop-color="#F2F010"/></radialGradient><radialGradient id="prefix__paint7_radial_0_1" cx="0" cy="0" r="1" gradientUnits="userSpaceOnUse" gradientTransform="rotate(-86.696 306.57 83.074) scale(44.1818 44.4415)"><stop stop-color="#EDE824"/><stop offset="1" stop-color="#E3E10F"/></radialGradient><radialGradient id="prefix__paint8_radial_0_1" cx="0" cy="0" r="1" gradientUnits="userSpaceOnUse" gradientTransform="rotate(-86.754 307.595 83.098) scale(31.547 31.7305)"><stop stop-color="#FFFB42"/><stop offset="1" stop-color="#F2F010"/></radialGradient><radialGradient id="prefix__paint12_radial_0_1" cx="0" cy="0" r="1" gradientUnits="userSpaceOnUse" gradientTransform="rotate(-86.696 432.573 -50.41) scale(44.1818 44.4415)"><stop stop-color="#EDE824"/><stop offset="1" stop-color="#E3E10F"/></radialGradient><radialGradient id="prefix__paint13_radial_0_1" cx="0" cy="0" r="1" gradientUnits="userSpaceOnUse" gradientTransform="rotate(-86.754 433.599 -50.251) scale(31.547 31.7305)"><stop stop-color="#FFFB42"/><stop offset="1" stop-color="#F2F010"/></radialGradient><clipPath id="prefix__clip0_0_1"><path fill="#fff" transform="rotate(-140 238.5 140.622)" d="M0 0h250v250H0z"/></clipPath><clipPath id="prefix__clip1_0_1"><path fill="#fff" transform="rotate(133 167.803 195.197)" d="M0 0h300v300H0z"/></clipPath><clipPath id="prefix__clip2_0_1"><path fill="#fff" transform="rotate(133 293.804 249.985)" d="M0 0h300v300H0z"/></clipPath></defs></svg>