<svg width="1024" height="1024" viewBox="0 0 270.933 270.933" xmlns="http://www.w3.org/2000/svg"><path d="M162.834 118.241l-147.885-9.573s-6.147 12.096-1.698 25.68c3.703 11.3 11.916 18.638 25.562 24.298 13.657 5.647 24.35 5.745 24.35 5.745s3.036 5.04 8.286 5.4c4.803.343 7.46-3.463 7.507-3.466 1.836-.062 28.285 1.762 41.73 1.282 13.444-.48 55.419-3.865 55.419-3.865s3.787 3.983 8.609 3.352c4.496-.587 5.417-4.068 5.417-4.068s39.692.22 53.906-15.203c15.735-17.081 7.022-35.132 5.254-37.805-1.756-2.663-86.457 8.223-86.457 8.223z" fill="#2e7e30"/><path d="M180.89 91.294s-11.21 1.318-14.743 1.959c-3.521.628-12.388 1.406-12.388 1.406s-2.108-4.467-7.774-3.85c-5.027.538-7.79 5.066-7.79 5.066s-29.135.11-52.1-2.55c-22.965-2.661-47.11-5.982-60.831 3.186-7.658 5.117-10.302 12.168-10.302 12.168s2.838 3.987 3.954 9.058.89 9.492.89 9.492 11.43 12.096 27.341 16.026c15.912 3.93 65.68 7.382 78.94 7.114 13.259-.268 65.857-3.726 80.445-6.436 15.64-2.908 31.852-10.002 38.462-20.944 6.621-10.932 4.31-12.96 4.31-12.96s-7.978-15.932-24.1-20.023c-15.109-3.841-28.592-.91-28.592-.91s-2.452-4.351-7.447-3.674c-5.901.784-8.276 5.872-8.276 5.872z" fill="#559833"/><path d="M229.257 127.31c-.861-2.605-4.73-3.887-7.966-2.656-3.235 1.23-5.048 4.524-3.866 7.19 1.182 2.664 4.158 3.911 7.704 2.953 2.545-.694 5.385-3.68 4.128-7.488zM125.218 139.575c-.882-3.985-4.954-5.16-8.644-4.064-3.677 1.107-5.695 3.407-5.339 6.711.357 3.305 4.222 5.068 8.352 4.072 3.646-.871 6.447-3.01 5.63-6.72zM133.501 129.507c-1.13 3.144 28.49 2.757 47.512-.067 19.021-2.824 51.763-8.173 49.207-13.76-2.692-5.882-26.516 1.638-42.303 4.638-23.09 4.402-52.698 4.449-54.416 9.19zM112.203 129.41c-2.3 3.724-26.586 3.798-36.75 3.02-5.747-.444-35.43-7.107-33.744-11.986 1.124-3.238 22.08 2.765 31.282 3.886 10.395 1.267 19.075 1.403 25.727 1.695 3.793.14 15.138.699 13.485 3.385zM238.557 107.684c-1.367 1.682-5.048.939-9.578-1.32-4.53-2.259-17.763-1.594-26.797-.7-9.035.895-32.816 5.307-36.75 6.08-3.933.772-21.479.887-26.554 1.23-5.075.343-32.125-1.172-39.185-1.625-7.073-.464-32.498-3.83-38.656-4.46-5.685-.566-15.114-1.227-22.773 1.534-5.955 2.123-11.79 5.364-12.925 3.598-1.134-1.766 4.94-8.69 13.52-11.699 8.58-3.009 20.141-1.115 26.51-.301 6.37.815 35.942 4.895 35.942 4.895s22.49.57 27.704.745c5.214.175 29.915.18 38.984-1.631 9.069-1.811 28.22-5.51 38.876-6.523 10.645-1 20.15.829 24.269 2.704 4.095 1.877 9.593 4.787 7.413 7.473z" fill="#2e7e30"/><path d="M47.511 110.972c-.838 2.585 2.191 5.376 7.868 6.528 5.689 1.164 18.125 2.485 25.013 3.16 8.114.806 16.92 1.25 19.965 1.04 4.877-.319 7.522-1.804 8.217-3.9.695-2.096-2.196-3.84-6.086-4.196-8.522-.768-13.79-1.76-28.099-3.579-5.742-.726-15.014-1.668-18.693-1.838-3.69-.157-7.158-.34-8.185 2.785zM217.188 94.478c-.61 2.325 2.48 3.518 7.213 4.217 4.732.698 6.526-.016 6.887-2.384.36-2.367-3.113-4.6-5.94-5.014-2.887-.42-7.343.07-8.16 3.181zM207.8 110.418c-.253 3.474 5.446 3.547 9.672 3.294 3.98-.224 8.41-.057 10.382-.35 1.544-.23 6.804-2.764 2.703-6.164-3.308-2.748-11.135-2.554-14.806-2.255-2.647.208-7.694 1.873-7.95 5.475z" fill="#7fba42"/><g><path d="M54.1 162.354l11.208-147.77s-12.027-6.28-25.659-1.982C28.31 16.18 20.88 24.311 15.07 37.893 9.272 51.487 9.056 62.178 9.056 62.178s-5.073 2.98-5.492 8.226c-.395 4.799 3.381 7.498 3.383 7.545.041 1.836-2.075 28.264-1.744 41.713.33 13.448 3.251 55.459 3.251 55.459s-4.024 3.742-3.446 8.57c.536 4.504 4.008 5.463 4.008 5.463s-.66 39.687 14.605 54.07c16.906 15.924 35.052 7.411 37.745 5.672 2.682-1.726-7.266-86.542-7.266-86.542z" fill="#2e7e30"/><path d="M80.845 180.706s-1.194-11.224-1.795-14.763c-.59-3.528-1.27-12.402-1.27-12.402s4.49-2.059 3.938-7.732c-.484-5.032-4.98-7.845-4.98-7.845s.212-29.135 3.126-52.069c2.915-22.934 6.503-47.04-2.513-60.862-5.032-7.714-12.054-10.436-12.054-10.436s-4.017 2.793-9.1 3.854c-5.084 1.06-9.502.784-9.502.784S34.473 30.53 30.368 46.397c-4.106 15.868-8.109 65.595-7.987 78.856.12 13.261 2.997 65.895 5.545 80.512 2.735 15.672 9.648 31.961 20.517 38.691 10.858 6.742 12.912 4.453 12.912 4.453s16.018-7.8 20.288-23.876c4.008-15.066 1.226-28.58 1.226-28.58s4.379-2.404 3.756-7.406c-.718-5.91-5.78-8.34-5.78-8.34z" fill="#559833"/><path d="M44.297 228.673c2.613-.833 3.939-4.687 2.744-7.936-1.195-3.25-4.469-5.098-7.147-3.946-2.677 1.153-3.957 4.114-3.038 7.671.665 2.552 3.62 5.425 7.441 4.21zM33.184 124.504c3.994-.837 5.215-4.896 4.16-8.598-1.067-3.69-3.344-5.733-6.653-5.413-3.308.32-5.114 4.165-4.164 8.306.83 3.655 2.94 6.48 6.657 5.705zM43.159 132.898c-3.131-1.165-3.072 28.459-.458 47.51 2.613 19.051 7.599 51.85 13.213 49.357 5.912-2.628-1.344-26.533-4.168-42.353-4.147-23.137-3.866-52.744-8.587-54.514zM43.492 111.603c-3.698-2.34-3.504-26.627-2.614-36.78.509-5.743 7.5-35.35 12.36-33.611 3.224 1.16-3.01 22.049-4.233 31.238-1.381 10.38-1.613 19.058-1.98 25.705-.18 3.793-.866 15.13-3.533 13.448zM63.819 238.19c-1.668-1.386-.883-5.059 1.425-9.563 2.31-4.505 1.79-17.745.996-26.789-.795-9.044-4.943-32.872-5.672-36.814-.729-3.942-.65-21.488-.936-26.566-.287-5.079 1.527-32.11 2.058-39.165.542-7.067 4.19-32.454 4.887-38.604.63-5.679 1.395-15.1-1.282-22.79-2.057-5.977-5.232-11.847-3.454-12.962 1.778-1.116 8.634 5.035 11.548 13.648 2.914 8.614.893 20.152.008 26.512-.885 6.36-5.292 35.886-5.292 35.886s-.82 22.48-1.052 27.693c-.233 5.212-.51 29.912 1.2 39 1.71 9.088 5.198 28.28 6.092 38.946.882 10.655-1.051 20.14-2.972 24.237-1.923 4.074-4.893 9.54-7.554 7.33z" fill="#2e7e30"/><path d="M62.645 47.119c-2.576-.867-5.4 2.131-6.615 7.794-1.227 5.676-2.685 18.098-3.436 24.977-.896 8.105-1.438 16.906-1.261 19.952.264 4.88 1.72 7.542 3.808 8.26 2.089.719 3.865-2.153 4.263-6.039.862-8.513 1.912-13.77 3.89-28.057.79-5.734 1.834-14.995 2.045-18.672.198-3.688.42-7.154-2.694-8.215zM77.26 216.968c-2.318-.636-3.545 2.44-4.296 7.165-.751 4.725-.056 6.526 2.307 6.913 2.363.387 4.635-3.062 5.08-5.884.452-2.882.011-7.343-3.091-8.194zM61.424 207.404c-3.47-.292-3.606 5.407-3.4 9.634.18 3.984-.037 8.41.234 10.386.213 1.546 2.69 6.834 6.135 2.771 2.785-3.277 2.677-11.106 2.419-14.78-.179-2.649-1.788-7.714-5.388-8.01z" fill="#7fba42"/></g><g><path d="M212.788 99.362L192.64 246.18s11.624 6.998 25.491 3.534c11.537-2.883 19.445-10.549 26.068-23.754 6.611-13.217 7.476-23.876 7.476-23.876s5.244-2.666 5.98-7.877c.686-4.766-2.92-7.69-2.92-7.737.07-1.835 3.785-28.085 4.27-41.53.486-13.444.118-55.554.118-55.554s4.244-3.492 3.96-8.346c-.262-4.527-3.67-5.695-3.67-5.695s3.066-39.574-11.299-54.857c-15.909-16.92-34.538-9.522-37.331-7.95-2.782 1.56 2.005 86.824 2.005 86.824z" fill="#2e7e30"/><path d="M187.205 79.421s.51 11.276.897 14.845c.374 3.557.514 12.457.514 12.457s-4.607 1.782-4.398 7.478c.177 5.053 4.495 8.133 4.495 8.133s-1.979 29.068-6.278 51.784c-4.3 22.715-9.344 46.56-1.182 60.902 4.555 8.005 11.399 11.148 11.399 11.148s4.179-2.545 9.317-3.295 9.532-.206 9.532-.206 12.884-10.534 17.944-26.123c5.06-15.59 12.071-64.983 12.754-78.227.683-13.244 1.004-65.955-.653-80.7-1.78-15.809-7.693-32.487-18.134-39.863-10.428-7.388-12.618-5.228-12.618-5.228s-16.461 6.815-21.698 22.602c-4.914 14.795-2.957 28.454-2.957 28.454s-4.516 2.133-4.198 7.164c.359 5.942 5.264 8.675 5.264 8.675z" fill="#559833"/><path d="M226.594 33.76c-2.66.672-4.216 4.439-3.22 7.754.996 3.316 4.151 5.36 6.894 4.372 2.743-.988 4.2-3.867 3.498-7.473-.509-2.587-3.284-5.634-7.172-4.654zM231.37 138.41c-4.037.594-5.502 4.572-4.673 8.33.841 3.748 2.99 5.925 6.312 5.807 3.321-.12 5.357-3.848 4.66-8.038-.608-3.7-2.541-6.647-6.298-6.099zM221.923 129.427c3.054 1.353 4.791-28.22 3.338-47.395-1.453-19.175-4.441-52.216-10.197-50.067-6.06 2.264-.267 26.565 1.593 42.527 2.736 23.346.66 52.882 5.266 54.935zM220.299 150.663c3.55 2.56 1.883 26.79.379 36.871-.856 5.7-9.63 34.83-14.375 32.8-3.149-1.354 4.34-21.827 6.119-30.924 2.008-10.277 2.766-18.925 3.534-25.539.41-3.774 1.782-15.05 4.343-13.208zM207.685 23.077c1.58 1.483.575 5.102-2.003 9.458-2.577 4.357-2.863 17.603-2.618 26.679.245 9.075 2.941 33.111 3.43 37.09.488 3.979-.655 21.488-.677 26.574-.022 5.087-3.471 31.959-4.43 38.969-.969 7.02-6.15 32.14-7.218 38.236-.972 5.63-2.308 14.988-.103 22.825 1.691 6.091 4.505 12.144 2.662 13.149-1.842 1.005-8.312-5.55-10.699-14.324-2.386-8.774.33-20.169 1.6-26.463 1.269-6.295 7.458-35.5 7.458-35.5s2.181-22.39 2.73-27.578c.548-5.188 2.322-29.826 1.166-39-1.156-9.176-3.473-28.543-3.719-39.244-.234-10.69 2.27-20.04 4.437-24.013 2.165-3.95 5.462-9.225 7.984-6.858z" fill="#2e7e30"/><path d="M197.271 213.866c2.519 1.023 5.52-1.8 7.076-7.379 1.568-5.59 3.777-17.9 4.944-24.722 1.386-8.036 2.46-16.787 2.468-19.839.032-4.888-1.26-7.632-3.3-8.476-2.041-.843-3.989 1.915-4.622 5.77-1.376 8.445-2.743 13.628-5.584 27.77-1.136 5.676-2.74 14.856-3.172 18.513-.422 3.67-.854 7.116 2.19 8.363zM192.982 43.444c2.275.775 3.687-2.221 4.723-6.892 1.036-4.67.452-6.51-1.884-7.04-2.335-.53-4.812 2.775-5.427 5.566-.626 2.849-.457 7.329 2.588 8.366zM208.209 53.95c3.446.502 3.927-5.177 3.978-9.41.061-3.987.546-8.392.396-10.381-.119-1.556-2.27-6.984-5.955-3.138-2.979 3.103-3.346 10.923-3.311 14.607.017 2.654 1.317 7.808 4.892 8.322z" fill="#7fba42"/></g></svg>